<mxfile host="app.diagrams.net" modified="2021-11-05T15:18:44.368Z" agent="5.0 (Macintosh; Intel Mac OS X 10_13_6) AppleWebKit/537.36 (KHTML, like Gecko) Chrome/95.0.4638.69 Safari/537.36" etag="23nlJeBOvUzeZ2u0BiSE" version="15.6.8" type="github">
  <diagram id="2JFPzM-OZDi0Pkh6B-aT" name="Page-1">
    <mxGraphModel dx="765" dy="479" grid="1" gridSize="10" guides="1" tooltips="1" connect="1" arrows="1" fold="1" page="1" pageScale="1" pageWidth="850" pageHeight="1100" math="0" shadow="0">
      <root>
        <mxCell id="0" />
        <mxCell id="1" parent="0" />
        <mxCell id="ppH_8ikgbxXiI5HkI6jH-5" value="" style="edgeStyle=elbowEdgeStyle;rounded=0;orthogonalLoop=1;jettySize=auto;html=1;" parent="1" source="ppH_8ikgbxXiI5HkI6jH-1" target="ppH_8ikgbxXiI5HkI6jH-4" edge="1">
          <mxGeometry relative="1" as="geometry" />
        </mxCell>
        <mxCell id="ppH_8ikgbxXiI5HkI6jH-6" value="No" style="edgeLabel;html=1;align=center;verticalAlign=middle;resizable=0;points=[];" parent="ppH_8ikgbxXiI5HkI6jH-5" vertex="1" connectable="0">
          <mxGeometry x="-0.1314" y="-1" relative="1" as="geometry">
            <mxPoint as="offset" />
          </mxGeometry>
        </mxCell>
        <mxCell id="ppH_8ikgbxXiI5HkI6jH-10" value="" style="edgeStyle=elbowEdgeStyle;rounded=0;orthogonalLoop=1;jettySize=auto;html=1;" parent="1" source="ppH_8ikgbxXiI5HkI6jH-1" target="ppH_8ikgbxXiI5HkI6jH-9" edge="1">
          <mxGeometry relative="1" as="geometry" />
        </mxCell>
        <mxCell id="ppH_8ikgbxXiI5HkI6jH-11" value="Yes" style="edgeLabel;html=1;align=center;verticalAlign=middle;resizable=0;points=[];" parent="ppH_8ikgbxXiI5HkI6jH-10" vertex="1" connectable="0">
          <mxGeometry x="-0.2279" relative="1" as="geometry">
            <mxPoint y="4" as="offset" />
          </mxGeometry>
        </mxCell>
        <mxCell id="ppH_8ikgbxXiI5HkI6jH-1" value="i s year % 4?" style="rhombus;whiteSpace=wrap;html=1;" parent="1" vertex="1">
          <mxGeometry x="600" y="250" width="100" height="90" as="geometry" />
        </mxCell>
        <mxCell id="ppH_8ikgbxXiI5HkI6jH-4" value="Not a Leap Year" style="whiteSpace=wrap;html=1;fillColor=#f8cecc;strokeColor=#b85450;" parent="1" vertex="1">
          <mxGeometry x="440" y="360" width="120" height="60" as="geometry" />
        </mxCell>
        <mxCell id="ppH_8ikgbxXiI5HkI6jH-13" value="" style="edgeStyle=elbowEdgeStyle;rounded=0;orthogonalLoop=1;jettySize=auto;html=1;" parent="1" source="ppH_8ikgbxXiI5HkI6jH-9" target="ppH_8ikgbxXiI5HkI6jH-12" edge="1">
          <mxGeometry relative="1" as="geometry" />
        </mxCell>
        <mxCell id="ppH_8ikgbxXiI5HkI6jH-14" value="Yes" style="edgeLabel;html=1;align=center;verticalAlign=middle;resizable=0;points=[];" parent="ppH_8ikgbxXiI5HkI6jH-13" vertex="1" connectable="0">
          <mxGeometry x="-0.2186" relative="1" as="geometry">
            <mxPoint as="offset" />
          </mxGeometry>
        </mxCell>
        <mxCell id="ppH_8ikgbxXiI5HkI6jH-27" value="" style="edgeStyle=elbowEdgeStyle;rounded=0;orthogonalLoop=1;jettySize=auto;html=1;" parent="1" source="ppH_8ikgbxXiI5HkI6jH-9" target="ppH_8ikgbxXiI5HkI6jH-26" edge="1">
          <mxGeometry relative="1" as="geometry" />
        </mxCell>
        <mxCell id="ppH_8ikgbxXiI5HkI6jH-28" value="No" style="edgeLabel;html=1;align=center;verticalAlign=middle;resizable=0;points=[];" parent="ppH_8ikgbxXiI5HkI6jH-27" vertex="1" connectable="0">
          <mxGeometry x="-0.4737" relative="1" as="geometry">
            <mxPoint x="-31" as="offset" />
          </mxGeometry>
        </mxCell>
        <mxCell id="ppH_8ikgbxXiI5HkI6jH-9" value="i s year % 100?" style="rhombus;whiteSpace=wrap;html=1;" parent="1" vertex="1">
          <mxGeometry x="750" y="345" width="100" height="90" as="geometry" />
        </mxCell>
        <mxCell id="ppH_8ikgbxXiI5HkI6jH-30" value="" style="edgeStyle=elbowEdgeStyle;rounded=0;orthogonalLoop=1;jettySize=auto;html=1;" parent="1" source="ppH_8ikgbxXiI5HkI6jH-12" target="ppH_8ikgbxXiI5HkI6jH-29" edge="1">
          <mxGeometry relative="1" as="geometry" />
        </mxCell>
        <mxCell id="ppH_8ikgbxXiI5HkI6jH-31" value="No" style="edgeLabel;html=1;align=center;verticalAlign=middle;resizable=0;points=[];" parent="ppH_8ikgbxXiI5HkI6jH-30" vertex="1" connectable="0">
          <mxGeometry x="-0.4737" y="-1" relative="1" as="geometry">
            <mxPoint x="-35" as="offset" />
          </mxGeometry>
        </mxCell>
        <mxCell id="ppH_8ikgbxXiI5HkI6jH-33" value="" style="edgeStyle=elbowEdgeStyle;rounded=0;orthogonalLoop=1;jettySize=auto;html=1;" parent="1" source="ppH_8ikgbxXiI5HkI6jH-12" target="ppH_8ikgbxXiI5HkI6jH-32" edge="1">
          <mxGeometry relative="1" as="geometry" />
        </mxCell>
        <mxCell id="ppH_8ikgbxXiI5HkI6jH-34" value="Yes" style="edgeLabel;html=1;align=center;verticalAlign=middle;resizable=0;points=[];" parent="ppH_8ikgbxXiI5HkI6jH-33" vertex="1" connectable="0">
          <mxGeometry x="-0.5714" y="-3" relative="1" as="geometry">
            <mxPoint x="3" y="33" as="offset" />
          </mxGeometry>
        </mxCell>
        <mxCell id="ppH_8ikgbxXiI5HkI6jH-12" value="i s year % 400?" style="rhombus;whiteSpace=wrap;html=1;" parent="1" vertex="1">
          <mxGeometry x="930" y="500" width="100" height="90" as="geometry" />
        </mxCell>
        <mxCell id="ppH_8ikgbxXiI5HkI6jH-26" value="Is a Leap Year" style="whiteSpace=wrap;html=1;fillColor=#d5e8d4;strokeColor=#82b366;" parent="1" vertex="1">
          <mxGeometry x="630" y="475" width="120" height="60" as="geometry" />
        </mxCell>
        <mxCell id="ppH_8ikgbxXiI5HkI6jH-29" value="Not a Leap Year" style="whiteSpace=wrap;html=1;fillColor=#f8cecc;strokeColor=#b85450;" parent="1" vertex="1">
          <mxGeometry x="810" y="650" width="120" height="60" as="geometry" />
        </mxCell>
        <mxCell id="ppH_8ikgbxXiI5HkI6jH-32" value="Is a Leap Year" style="whiteSpace=wrap;html=1;fillColor=#d5e8d4;strokeColor=#82b366;" parent="1" vertex="1">
          <mxGeometry x="1090" y="650" width="120" height="60" as="geometry" />
        </mxCell>
        <mxCell id="ppH_8ikgbxXiI5HkI6jH-35" value="Decision Tree for Leap Year" style="text;strokeColor=none;fillColor=none;html=1;fontSize=24;fontStyle=1;verticalAlign=middle;align=center;" parent="1" vertex="1">
          <mxGeometry x="810" y="10" width="100" height="40" as="geometry" />
        </mxCell>
        <mxCell id="ppH_8ikgbxXiI5HkI6jH-37" value="&lt;h1&gt;Leap Year Logic&lt;/h1&gt;&lt;span style=&quot;font-family: &amp;#34;ibm plex mono&amp;#34; , monospace ; font-size: 14.4px&quot;&gt;On every year that is evenly divisible by 4&lt;br&gt;&lt;span style=&quot;white-space: pre&quot;&gt;	&lt;/span&gt;**except** every year that is evenly divisible by 100 &lt;span style=&quot;white-space: pre&quot;&gt;	&lt;/span&gt;&lt;br&gt;&lt;span style=&quot;white-space: pre&quot;&gt;	&lt;span style=&quot;white-space: pre&quot;&gt;	&lt;/span&gt;&lt;/span&gt;**unless** the year is also evenly divisible by 400&lt;/span&gt;&lt;p&gt;.&lt;/p&gt;" style="text;html=1;strokeColor=none;fillColor=none;spacing=5;spacingTop=-20;whiteSpace=wrap;overflow=hidden;rounded=0;" parent="1" vertex="1">
          <mxGeometry x="650" y="90" width="650" height="120" as="geometry" />
        </mxCell>
      </root>
    </mxGraphModel>
  </diagram>
</mxfile>
